<svg xmlns="http://www.w3.org/2000/svg" viewBox="0 0 1600 900" role="img" aria-labelledby="title desc"><title id="title">Gao Yuze public mind visual</title><desc id="desc">An abstract paper field with annotation lines and manuscript marks.</desc><rect width="1600" height="900" fill="#f7f7f4"/><rect x="1060" width="540" height="900" fill="#dfe4e0" opacity=".7"/><g stroke="#111827" stroke-opacity=".16"><path d="M100 180H545M100 235H475M100 290H690M1120 675H1510M980 705H1380"/><path d="M870 120V790M710 705H1170" stroke-width="3" stroke-opacity=".68"/><path d="M865 700c48-100 40-212 14-318M872 701c72-75 128-123 205-148M866 700c-78-108-172-157-252-184" stroke-width="2.2" fill="none" stroke-linecap="round"/></g><g fill="#a33a2b" font-family="Georgia,serif" font-size="18" opacity=".72"><text x="78" y="212">1.1</text><text x="1388" y="524">note</text><text x="1405" y="215">read</text><text x="1170" y="735">2026</text></g><g fill="#111827" opacity=".52" font-family="Georgia,serif" font-size="22"><text x="1185" y="130" writing-mode="tb">学习不是姿态</text><text x="1248" y="130" writing-mode="tb">而是每天留下证据</text><text x="1310" y="130" writing-mode="tb">mind kept public</text></g><text x="250" y="392" fill="#111827" font-family="Georgia,serif" font-size="72" letter-spacing="14">Gao Yuze</text><text x="255" y="452" fill="#111827" font-family="Arial,sans-serif" font-size="16" letter-spacing="11" opacity=".72">PUBLIC MIND ARCHIVE</text><path d="M255 490h42" stroke="#a33a2b" stroke-width="3"/></svg>
